<svg xmlns="http://www.w3.org/2000/svg" width="512" height="512" viewBox="0 0 512 512">
<g>
<path d="M 58.20 472.98 C65.24,474.82 71.34,474.89 230.77,474.94 L 396.04 475.00 L 390.63 469.58 C380.73,459.69 373.35,446.44 370.43,433.35 L 368.80 426.00 L 281.95 426.00 C217.70,426.00 194.42,425.70 192.52,424.83 C188.22,422.87 187.44,415.93 191.17,412.75 C193.09,411.11 199.11,411.00 286.42,411.00 C378.83,411.00 379.64,411.02 381.81,413.04 C383.38,414.50 384.01,416.28 384.04,419.29 C384.20,438.84 397.40,459.71 415.05,468.33 C429.22,475.25 440.46,476.59 454.41,473.02 C464.42,470.46 470.94,466.88 478.63,459.71 C485.90,452.93 490.29,446.45 493.90,437.18 L 496.50 430.50 L 496.77 268.31 L 497.04 106.13 L 445.82 105.50 L 443.41 102.69 C440.51,99.31 440.34,96.04 442.91,92.86 L 444.82 90.50 L 475.61 90.21 C505.42,89.92 506.48,89.98 509.20,91.99 L 512.00 94.06 L 512.00 512.00 L 511.94 470.25 L 511.89 428.50 L 509.94 436.00 C503.61,460.37 485.17,479.66 461.00,487.17 L 453.50 489.50 L 58.50 489.50 L 49.81 486.39 C23.81,477.09 5.42,455.74 1.13,429.88 C0.53,426.26 0.20,438.84 0.12,468.25 L 0.00 512.00 L 0.00 415.91 L 2.45 413.45 L 4.91 411.00 L 64.00 411.00 L 64.00 254.05 C64.00,141.15 64.31,96.41 65.11,94.66 C65.72,93.32 67.32,91.72 68.66,91.11 C70.32,90.35 84.14,90.00 111.94,90.00 L 152.79 90.00 L 150.90 83.91 C148.13,75.03 148.35,62.46 151.41,53.78 C162.82,21.47 204.02,11.76 228.92,35.50 C242.38,48.34 247.04,67.12 241.12,84.65 L 239.32 89.97 L 328.13 90.23 C334.16,90.25 339.79,90.27 345.06,90.28 C409.98,90.46 418.45,90.48 420.00,93.76 C420.35,94.52 420.34,95.45 420.57,96.60 C421.05,99.00 420.63,100.31 418.68,102.59 L 416.17 105.50 L 329.89 105.77 L 243.60 106.03 L 261.80 124.33 C281.32,143.95 282.05,145.12 277.97,150.31 C275.41,153.56 272.71,154.43 269.79,152.95 C268.53,152.31 257.80,142.14 245.95,130.35 L 224.39 108.91 L 216.95 112.42 C200.84,120.00 185.53,118.99 170.23,109.33 L 164.96 106.00 L 80.00 106.00 L 80.00 257.50 C80.00,340.83 79.89,409.34 79.75,409.75 C79.61,410.16 98.37,410.62 121.43,410.76 C157.16,410.98 164.90,410.90 166.56,414.04 C167.02,414.90 167.01,416.02 167.00,417.45 C167.00,417.65 167.00,417.86 167.00,418.08 C167.00,420.97 166.38,422.34 164.37,423.93 C161.75,425.98 161.07,426.00 88.75,426.00 L 15.78 426.00 L 16.47 429.67 C20.32,450.19 36.90,467.40 58.20,472.98 ZM 323.95 295.36 C320.35,296.26 313.98,297.28 309.80,297.63 C302.53,298.25 302.07,298.16 299.59,295.68 L 297.00 293.09 L 297.00 254.27 C297.00,253.34 297.00,252.44 297.00,251.55 C297.00,220.50 297.00,213.21 300.08,211.51 C301.02,210.99 302.26,210.99 303.87,211.00 C304.02,211.00 304.17,211.00 304.33,211.00 C310.48,211.00 322.32,214.51 331.69,219.12 C348.41,227.35 358.45,240.08 359.67,254.61 C361.35,274.70 348.63,289.21 323.95,295.36 ZM 420.50 294.55 C410.89,299.25 402.45,298.63 393.28,292.57 C383.61,286.17 377.02,272.17 377.02,258.00 C377.02,242.30 385.30,226.96 396.76,221.41 C401.40,219.16 412.60,218.38 417.42,219.97 C426.69,223.03 435.48,233.85 438.59,246.00 C440.72,254.37 440.07,267.27 437.12,275.00 C433.94,283.35 427.21,291.26 420.50,294.55 ZM 239.76 296.48 C233.67,298.29 230.90,298.30 225.32,296.56 C216.03,293.66 209.35,287.26 204.28,276.43 C201.70,270.93 201.50,269.58 201.50,257.95 C201.50,245.49 201.53,245.33 205.19,237.95 C211.60,225.00 220.24,218.98 232.40,219.02 C241.02,219.05 245.83,221.02 251.74,226.96 C260.89,236.14 265.49,251.58 263.17,265.33 C260.68,280.17 250.91,293.17 239.76,296.48 ZM 186.50 100.67 C192.46,102.63 203.68,101.82 209.50,99.00 C216.60,95.56 222.44,89.65 225.53,82.76 C227.96,77.34 228.19,75.86 227.80,68.12 C227.28,57.97 225.13,53.00 218.46,46.52 C211.52,39.77 206.07,37.60 196.00,37.59 C188.42,37.58 186.84,37.92 181.41,40.72 C174.41,44.34 169.74,49.22 166.38,56.43 C164.50,60.46 164.02,63.19 164.01,69.78 C164.00,76.95 164.39,78.83 166.92,83.84 C171.12,92.17 177.60,97.73 186.50,100.67 ZM 381.55 335.55 L 379.09 338.00 L 296.68 338.00 C214.82,338.00 214.25,337.99 211.63,335.93 C208.33,333.33 208.02,327.98 211.00,325.00 C212.97,323.03 214.33,323.00 296.50,323.00 C378.67,323.00 380.03,323.03 382.00,325.00 C384.78,327.78 384.58,332.52 381.55,335.55 ZM 171.56 297.23 C169.51,298.66 166.08,297.97 163.31,295.59 L 160.50 293.18 L 160.17 263.68 L 159.84 234.19 L 150.45 233.84 C142.53,233.55 140.72,233.17 138.96,231.41 C136.34,228.78 136.11,223.64 138.50,221.00 C140.23,219.09 141.59,219.00 168.08,219.00 L 195.85 219.00 L 197.93 221.63 C200.75,225.22 200.53,227.62 197.08,231.08 C194.28,233.88 193.78,234.00 185.08,234.00 L 176.00 234.00 L 176.00 262.78 C176.00,288.17 175.80,291.85 174.31,294.03 C173.38,295.39 172.14,296.83 171.56,297.23 ZM 341.55 375.55 L 339.09 378.00 L 284.68 378.00 C231.15,378.00 230.23,377.97 227.63,375.93 C224.33,373.33 224.02,367.98 227.00,365.00 C228.95,363.05 230.32,363.00 284.25,363.02 C314.64,363.02 340.00,363.36 340.60,363.77 C342.24,364.86 344.00,368.59 344.00,370.98 C344.00,372.14 342.90,374.20 341.55,375.55 ZM 312.00 227.78 L 312.00 282.22 L 315.75 281.56 C322.77,280.33 331.85,276.89 335.96,273.91 C351.41,262.72 345.92,242.70 324.64,232.60 C320.60,230.68 316.10,228.81 314.65,228.45 ZM 405.00 281.88 C408.35,283.21 408.57,283.21 412.30,281.65 C426.32,275.79 429.41,250.15 417.52,238.26 C413.75,234.48 412.74,234.00 408.67,234.00 C403.01,234.00 398.37,237.63 394.91,244.76 C391.45,251.88 391.58,264.59 395.19,271.50 C398.09,277.05 401.23,280.37 405.00,281.88 ZM 228.48 281.61 C232.31,283.27 232.42,283.27 236.28,281.63 C250.32,275.65 252.84,247.97 240.34,236.99 C233.59,231.07 224.59,233.83 219.36,243.43 C212.27,256.46 217.09,276.64 228.48,281.61 Z" fill="rgb(3,2,3)"/>
<path d="M 186.50 100.67 C177.60,97.73 171.12,92.17 166.92,83.84 C164.39,78.83 164.00,76.95 164.01,69.78 C164.02,63.19 164.50,60.46 166.38,56.43 C169.74,49.22 174.41,44.34 181.41,40.72 C186.84,37.92 188.42,37.58 196.00,37.59 C206.07,37.60 211.52,39.77 218.46,46.52 C225.13,53.00 227.28,57.97 227.80,68.12 C228.19,75.86 227.96,77.34 225.53,82.76 C222.44,89.65 216.60,95.56 209.50,99.00 C203.68,101.82 192.46,102.63 186.50,100.67 ZM 15.40 462.01 C23.98,472.85 35.79,481.37 49.81,486.39 L 58.50 489.50 L 50.50 486.69 C35.63,481.47 24.02,473.34 15.40,462.01 ZM 0.49 434.46 C0.65,429.81 0.86,428.30 1.13,429.88 C1.51,432.20 2.01,434.48 2.62,436.72 C2.28,435.66 1.95,434.59 1.64,433.50 C1.06,431.47 0.71,431.00 0.49,434.46 Z" fill="rgb(115,76,190)"/>
<path d="M 58.20 472.98 C36.90,467.40 20.32,450.19 16.47,429.67 L 15.78 426.00 L 88.75 426.00 C161.07,426.00 161.75,425.98 164.37,423.93 C166.38,422.34 167.00,420.97 167.00,418.08 C167.00,417.86 167.00,417.65 167.00,417.45 C167.01,416.66 167.01,415.97 166.94,415.36 L 166.97 415.46 C167.66,417.31 168.67,417.50 178.36,417.67 C188.14,417.83 189.00,417.70 189.00,415.98 C189.00,414.95 190.00,413.41 191.22,412.56 C191.60,412.29 192.30,412.07 193.76,411.89 C192.19,412.11 191.58,412.40 191.17,412.75 C187.44,415.93 188.22,422.87 192.52,424.83 C194.42,425.70 217.70,426.00 281.95,426.00 L 368.80 426.00 L 370.43 433.35 C373.35,446.44 380.73,459.69 390.63,469.58 L 396.04 475.00 L 230.77 474.94 C71.34,474.89 65.24,474.82 58.20,472.98 ZM 389.18 440.94 C385.96,434.00 384.10,426.55 384.04,419.29 C384.09,425.45 386.04,433.61 389.18,440.94 ZM 433.93 474.50 C440.03,475.16 446.85,474.72 453.32,473.29 C446.45,474.94 440.22,475.37 433.93,474.50 ZM 401.62 458.67 C405.64,462.48 410.27,465.80 415.28,468.45 C415.21,468.41 415.13,468.37 415.05,468.33 C410.17,465.95 405.64,462.63 401.62,458.67 ZM 472.28 464.99 C476.29,461.98 480.65,457.93 484.04,454.09 C482.43,455.99 480.64,457.84 478.63,459.71 C476.46,461.74 474.38,463.48 472.28,464.99 ZM 489.90 445.73 C491.35,443.02 492.91,439.72 493.90,437.18 C492.68,440.31 491.38,443.12 489.90,445.73 ZM 164.09 412.31 C162.62,411.85 160.42,411.54 157.13,411.33 C160.60,411.54 162.73,411.85 164.09,412.31 Z" fill="rgb(245,219,158)"/>
<path d="M 0.10 470.25 C0.20,432.24 0.34,428.95 1.64,433.50 C9.40,460.57 25.25,477.83 50.50,486.69 L 58.50 489.50 L 256.00 489.50 L 453.50 489.50 L 461.00 487.17 C485.17,479.66 503.61,460.37 509.94,436.00 L 511.89 428.50 L 511.94 470.25 L 512.00 512.00 L 256.00 512.00 L 0.00 512.00 L 0.10 470.25 ZM 428.00 473.42 C411.62,469.12 396.94,457.40 390.23,443.26 C386.49,435.39 384.09,426.11 384.04,419.29 C384.01,416.28 383.38,414.50 381.81,413.04 C379.64,411.02 378.83,411.00 286.53,411.00 C203.90,411.00 193.20,411.17 191.22,412.56 C190.00,413.41 189.00,414.95 189.00,415.98 C189.00,417.70 188.14,417.83 178.36,417.67 C168.67,417.50 167.66,417.31 166.97,415.46 C165.34,411.04 165.24,411.03 121.41,410.76 C98.36,410.62 79.61,410.16 79.75,409.75 C79.89,409.34 80.00,340.83 80.00,257.50 L 80.00 106.00 L 122.48 106.00 L 164.96 106.00 L 170.23 109.33 C185.53,118.99 200.84,120.00 216.95,112.42 L 224.39 108.91 L 245.95 130.35 C257.80,142.14 268.53,152.31 269.79,152.95 C272.71,154.43 275.41,153.56 277.97,150.31 C282.05,145.12 281.32,143.95 261.80,124.33 L 243.60 106.03 L 329.89 105.77 L 416.17 105.50 L 418.68 102.59 C420.63,100.31 421.05,99.00 420.57,96.60 C419.27,90.08 425.75,90.53 328.13,90.23 L 239.32 89.97 L 241.12 84.65 C247.04,67.12 242.38,48.34 228.92,35.50 C204.02,11.76 162.82,21.47 151.41,53.78 C148.35,62.46 148.13,75.03 150.90,83.91 L 152.79 90.00 L 111.94 90.00 C84.14,90.00 70.32,90.35 68.66,91.11 C67.32,91.72 65.72,93.32 65.11,94.66 C64.31,96.41 64.00,141.15 64.00,254.05 L 64.00 411.00 L 34.45 411.00 L 4.91 411.00 L 2.45 413.45 L 0.00 415.91 L 0.00 207.95 L 0.00 0.00 L 256.00 0.00 L 512.00 0.00 L 512.00 47.03 L 512.00 94.06 L 509.20 91.99 C506.48,89.98 505.42,89.92 475.61,90.21 L 444.82 90.50 L 442.91 92.86 C440.34,96.04 440.51,99.31 443.41,102.69 L 445.82 105.50 L 471.43 105.81 L 497.04 106.13 L 496.77 268.31 L 496.50 430.50 L 493.90 437.18 C492.47,440.85 489.85,446.12 488.07,448.89 C483.94,455.33 473.87,464.72 467.28,468.27 C456.09,474.32 439.62,476.48 428.00,473.42 ZM 341.55 375.55 C342.90,374.20 344.00,372.14 344.00,370.98 C344.00,368.59 342.24,364.86 340.60,363.77 C340.00,363.36 314.64,363.02 284.25,363.02 C230.32,363.00 228.95,363.05 227.00,365.00 C224.02,367.98 224.33,373.33 227.63,375.93 C230.23,377.97 231.15,378.00 284.68,378.00 L 339.09 378.00 L 341.55 375.55 ZM 381.55 335.55 C384.58,332.52 384.78,327.78 382.00,325.00 C380.03,323.03 378.67,323.00 296.50,323.00 C214.33,323.00 212.97,323.03 211.00,325.00 C208.02,327.98 208.33,333.33 211.63,335.93 C214.25,337.99 214.82,338.00 296.68,338.00 L 379.09 338.00 L 381.55 335.55 ZM 171.56 297.23 C172.14,296.83 173.38,295.39 174.31,294.03 C175.80,291.85 176.00,288.17 176.00,262.78 L 176.00 234.00 L 185.08 234.00 C193.78,234.00 194.28,233.88 197.08,231.08 C200.53,227.62 200.75,225.22 197.93,221.63 L 195.85 219.00 L 168.08 219.00 C141.59,219.00 140.23,219.09 138.50,221.00 C136.11,223.64 136.34,228.78 138.96,231.41 C140.72,233.17 142.53,233.55 150.45,233.84 L 159.84 234.19 L 160.17 263.68 L 160.50 293.18 L 163.31 295.59 C166.08,297.97 169.51,298.66 171.56,297.23 ZM 239.76 296.48 C250.91,293.17 260.68,280.17 263.17,265.33 C265.49,251.58 260.89,236.14 251.74,226.96 C245.83,221.02 241.02,219.05 232.40,219.02 C220.24,218.98 211.60,225.00 205.19,237.95 C201.53,245.33 201.50,245.49 201.50,257.95 C201.50,269.58 201.70,270.93 204.28,276.43 C209.35,287.26 216.03,293.66 225.32,296.56 C230.90,298.30 233.67,298.29 239.76,296.48 ZM 323.95 295.36 C348.63,289.21 361.35,274.70 359.67,254.61 C358.45,240.08 348.41,227.35 331.69,219.12 C322.32,214.51 310.48,211.00 304.33,211.00 C296.84,211.00 297.00,210.05 297.00,254.27 L 297.00 293.09 L 299.59 295.68 C302.07,298.16 302.53,298.25 309.80,297.63 C313.98,297.28 320.35,296.26 323.95,295.36 ZM 420.50 294.55 C427.21,291.26 433.94,283.35 437.12,275.00 C440.07,267.27 440.72,254.37 438.59,246.00 C435.48,233.85 426.69,223.03 417.42,219.97 C412.60,218.38 401.40,219.16 396.76,221.41 C385.30,226.96 377.02,242.30 377.02,258.00 C377.02,272.17 383.61,286.17 393.28,292.57 C402.45,298.63 410.89,299.25 420.50,294.55 ZM 228.48 281.61 C217.09,276.64 212.27,256.46 219.36,243.43 C224.59,233.83 233.59,231.07 240.34,236.99 C252.84,247.97 250.32,275.65 236.28,281.63 C232.42,283.27 232.31,283.27 228.48,281.61 ZM 312.00 255.00 L 312.00 227.78 L 314.65 228.45 C316.10,228.81 320.60,230.68 324.64,232.60 C345.92,242.70 351.41,262.72 335.96,273.91 C331.85,276.89 322.77,280.33 315.75,281.56 L 312.00 282.22 L 312.00 255.00 ZM 405.00 281.88 C401.23,280.37 398.09,277.05 395.19,271.50 C391.58,264.59 391.45,251.88 394.91,244.76 C398.37,237.63 403.01,234.00 408.67,234.00 C412.74,234.00 413.75,234.48 417.52,238.26 C429.41,250.15 426.32,275.79 412.30,281.65 C408.57,283.21 408.35,283.21 405.00,281.88 Z" fill="rgb(254,245,225)"/>
</g>
</svg>